<svg id="visual" viewBox="0 0 1920 1080" width="1920" height="1080" xmlns="http://www.w3.org/2000/svg" xmlns:xlink="http://www.w3.org/1999/xlink" version="1.1"><path d="M0 754L45.7 747C91.3 740 182.7 726 274.2 719.2C365.7 712.3 457.3 712.7 548.8 720C640.3 727.3 731.7 741.7 823 731.3C914.3 721 1005.7 686 1097 692.2C1188.3 698.3 1279.7 745.7 1371.2 762.5C1462.7 779.3 1554.3 765.7 1645.8 748.5C1737.3 731.3 1828.7 710.7 1874.3 700.3L1920 690L1920 1081L1874.3 1081C1828.7 1081 1737.3 1081 1645.8 1081C1554.3 1081 1462.7 1081 1371.2 1081C1279.7 1081 1188.3 1081 1097 1081C1005.7 1081 914.3 1081 823 1081C731.7 1081 640.3 1081 548.8 1081C457.3 1081 365.7 1081 274.2 1081C182.7 1081 91.3 1081 45.7 1081L0 1081Z" fill="#7b4b94"></path><path d="M0 864L45.7 863.3C91.3 862.7 182.7 861.3 274.2 853.8C365.7 846.3 457.3 832.7 548.8 828.3C640.3 824 731.7 829 823 811.2C914.3 793.3 1005.7 752.7 1097 739.5C1188.3 726.3 1279.7 740.7 1371.2 761C1462.7 781.3 1554.3 807.7 1645.8 812.8C1737.3 818 1828.7 802 1874.3 794L1920 786L1920 1081L1874.3 1081C1828.7 1081 1737.3 1081 1645.8 1081C1554.3 1081 1462.7 1081 1371.2 1081C1279.7 1081 1188.3 1081 1097 1081C1005.7 1081 914.3 1081 823 1081C731.7 1081 640.3 1081 548.8 1081C457.3 1081 365.7 1081 274.2 1081C182.7 1081 91.3 1081 45.7 1081L0 1081Z" fill="#7a5a9f"></path><path d="M0 819L45.7 829.2C91.3 839.3 182.7 859.7 274.2 875.2C365.7 890.7 457.3 901.3 548.8 886.2C640.3 871 731.7 830 823 829.3C914.3 828.7 1005.7 868.3 1097 888.3C1188.3 908.3 1279.7 908.7 1371.2 899.3C1462.7 890 1554.3 871 1645.8 858.5C1737.3 846 1828.7 840 1874.3 837L1920 834L1920 1081L1874.3 1081C1828.7 1081 1737.3 1081 1645.8 1081C1554.3 1081 1462.7 1081 1371.2 1081C1279.7 1081 1188.3 1081 1097 1081C1005.7 1081 914.3 1081 823 1081C731.7 1081 640.3 1081 548.8 1081C457.3 1081 365.7 1081 274.2 1081C182.7 1081 91.3 1081 45.7 1081L0 1081Z" fill="#7968a9"></path><path d="M0 958L45.7 953.3C91.3 948.7 182.7 939.3 274.2 927.2C365.7 915 457.3 900 548.8 904.7C640.3 909.3 731.7 933.7 823 942.5C914.3 951.3 1005.7 944.7 1097 935.5C1188.3 926.3 1279.7 914.7 1371.2 911.5C1462.7 908.3 1554.3 913.7 1645.8 924.2C1737.3 934.7 1828.7 950.3 1874.3 958.2L1920 966L1920 1081L1874.3 1081C1828.7 1081 1737.3 1081 1645.8 1081C1554.3 1081 1462.7 1081 1371.2 1081C1279.7 1081 1188.3 1081 1097 1081C1005.7 1081 914.3 1081 823 1081C731.7 1081 640.3 1081 548.8 1081C457.3 1081 365.7 1081 274.2 1081C182.7 1081 91.3 1081 45.7 1081L0 1081Z" fill="#7a75b1"></path><path d="M0 1006L45.7 1003.3C91.3 1000.7 182.7 995.3 274.2 993C365.7 990.7 457.3 991.3 548.8 986.8C640.3 982.3 731.7 972.7 823 971C914.3 969.3 1005.7 975.7 1097 975.2C1188.3 974.7 1279.7 967.3 1371.2 970.5C1462.7 973.7 1554.3 987.3 1645.8 989.2C1737.3 991 1828.7 981 1874.3 976L1920 971L1920 1081L1874.3 1081C1828.7 1081 1737.3 1081 1645.8 1081C1554.3 1081 1462.7 1081 1371.2 1081C1279.7 1081 1188.3 1081 1097 1081C1005.7 1081 914.3 1081 823 1081C731.7 1081 640.3 1081 548.8 1081C457.3 1081 365.7 1081 274.2 1081C182.7 1081 91.3 1081 45.7 1081L0 1081Z" fill="#7d82b8"></path></svg>